<svg width="167" height="167" viewBox="0 0 167 167" fill="none" xmlns="http://www.w3.org/2000/svg">
<path d="M136.188 83.5V83H135.688H109.594C101.226 83 94.4375 76.2112 94.4375 67.8438V26.0938C94.4375 17.7263 101.226 10.9375 109.594 10.9375H151.344C159.711 10.9375 166.5 17.7263 166.5 26.0938V104.375C166.5 132.932 143.37 156.062 114.812 156.062H112.203C108.141 156.062 104.875 152.796 104.875 148.734V133.078C104.875 129.016 108.141 125.75 112.203 125.75H114.812C126.603 125.75 136.188 116.165 136.188 104.375V83.5ZM42.25 83.5V83H41.75H15.6562C7.28884 83 0.5 76.2112 0.5 67.8438V26.0938C0.5 17.7263 7.28884 10.9375 15.6562 10.9375H57.4062C65.7737 10.9375 72.5625 17.7263 72.5625 26.0938V104.375C72.5625 132.932 49.4325 156.062 20.875 156.062H18.2656C14.2037 156.062 10.9375 152.796 10.9375 148.734V133.078C10.9375 129.016 14.2037 125.75 18.2656 125.75H20.875C32.665 125.75 42.25 116.165 42.25 104.375V83.5Z" stroke="#DDDDDD"/>
</svg>
