<svg width="1920" height="629" viewBox="0 0 1920 629" fill="none" xmlns="http://www.w3.org/2000/svg">
<path d="M0 329.604C34.49 346.276 107.205 390.023 122.145 431.636C140.82 483.653 248.833 379.12 265.489 481.152C282.145 583.184 138.801 518.664 162.524 552.174C186.246 585.685 239.243 571.18 327.571 552.174C415.899 533.168 499.685 723.228 516.341 566.679C532.997 410.129 635.962 337.106 664.732 431.636C693.502 526.166 723.952 566.679 741.451 566.679C767.697 566.679 767.697 537.67 803.533 552.174C839.369 566.679 928.202 595.188 968.58 566.679C1008.96 538.17 1044.29 557.676 1059.43 583.184C1078.96 616.086 1155.64 660.193 1183.6 521.664C1201.77 431.636 1262.33 460.145 1307.76 521.664C1353.19 583.184 1592.43 652.206 1518.23 566.679C1444.04 481.152 1427.89 448.141 1480.38 464.647C1532.87 481.152 1597.98 597.188 1635.84 552.174C1673.69 507.16 1647.95 524.165 1678.74 448.141C1709.53 372.117 1745.87 355.612 1795.84 410.129C1845.8 464.647 1901.32 436.138 1862.97 374.618C1824.61 313.099 1810.47 258.081 1843.79 270.085C1877.1 282.089 1896.78 255.581 1889.21 225.071C1881.64 194.561 1870.03 163.552 1889.21 163.552C1908.39 163.552 1922.52 175.055 1905.87 135.043C1889.21 95.03 1858.42 55.0173 1889.21 52.5166C1913.84 50.5159 1920 29.3426 1920 19.006V0" stroke="#DDDDDD"/>
</svg>
