<svg width="1440" height="218" viewBox="0 0 1440 218" fill="none" xmlns="http://www.w3.org/2000/svg">
<path fill-rule="evenodd" clip-rule="evenodd" d="M0 163.411L60 145.262C120 127.113 240 90.8161 360 95.3533C480 99.8904 600 145.262 720 145.262C840 145.262 960 99.8904 1080 68.1303C1200 36.3702 1320 18.2216 1380 9.14731L1440 0.072998V217.856H1380C1320 217.856 1200 217.856 1080 217.856C960 217.856 840 217.856 720 217.856C600 217.856 480 217.856 360 217.856C240 217.856 120 217.856 60 217.856H0V163.411Z" fill="#F8C8DC"/>
</svg>
