<svg width="43" height="33" viewBox="0 0 43 33" fill="none" xmlns="http://www.w3.org/2000/svg">
<path fill-rule="evenodd" clip-rule="evenodd" d="M1.00342 4.6656C1.26631 3.49541 1.91256 2.4506 2.83632 1.70226C3.76009 0.953924 4.90662 0.546428 6.08813 0.546509L37.3786 0.546509C38.5602 0.546428 39.7067 0.953924 40.6305 1.70226C41.5542 2.4506 42.2005 3.49541 42.4634 4.6656L21.7334 17.5368L1.00342 4.6656ZM0.873047 7.69068L0.873047 26.5087L16.0046 17.0838L0.873047 7.69068ZM18.5026 18.6387L1.37109 29.306C1.79436 30.2127 2.46241 30.9786 3.29749 31.5146C4.13257 32.0506 5.10033 32.3347 6.08813 32.3337H37.3786C38.3663 32.3339 39.3337 32.0492 40.1683 31.5128C41.0029 30.9763 41.6704 30.2101 42.0931 29.3033L24.9615 18.6361L21.7334 20.6413L18.5026 18.6361V18.6387ZM27.4622 17.0864L42.5937 26.5087V7.69068L27.4622 17.0838V17.0864Z" fill="#25282B"/>
</svg>
