<svg width="39" height="39" viewBox="0 0 39 39" fill="none" xmlns="http://www.w3.org/2000/svg">
<path d="M0.338867 3.27018C0.338867 1.7768 1.57981 0.566528 3.11093 0.566528L35.3141 0.566528C36.8452 0.566528 38.0862 1.7768 38.0862 3.27018V35.6102C38.0862 37.1035 36.8452 38.3138 35.3141 38.3138H3.11093C1.57981 38.3138 0.338867 37.1035 0.338867 35.6102L0.338867 3.27018ZM12.0004 32.1657V15.1205H6.33597L6.33597 32.1657H12.0004ZM9.16937 12.7919C11.144 12.7919 12.3732 11.4849 12.3732 9.84764C12.3378 8.17497 11.1464 6.90336 9.20712 6.90336C7.26785 6.90336 6.00096 8.17733 6.00096 9.84764C6.00096 11.4849 7.23011 12.7919 9.13163 12.7919H9.16937V12.7919ZM20.7484 32.1657V22.6463C20.7484 22.1367 20.7861 21.6272 20.9371 21.2638C21.3452 20.247 22.2771 19.1925 23.8436 19.1925C25.8938 19.1925 26.7124 20.7543 26.7124 23.0474V32.1657H32.3769V22.3892C32.3769 17.1517 29.5836 14.717 25.856 14.717C22.8504 14.717 21.5033 16.3685 20.7484 17.5316V17.5906H20.7106C20.7231 17.5709 20.7357 17.5512 20.7484 17.5316V15.1205H15.0863C15.157 16.72 15.0863 32.1657 15.0863 32.1657H20.7484Z" fill="#25282B"/>
</svg>
