<svg width="49" height="49" viewBox="0 0 49 49" fill="none" xmlns="http://www.w3.org/2000/svg">
<path d="M30.6513 24.4401C30.6513 25.6189 30.3018 26.7712 29.6469 27.7514C28.992 28.7315 28.0611 29.4954 26.9721 29.9465C25.883 30.3976 24.6846 30.5157 23.5285 30.2857C22.3723 30.0557 21.3103 29.4881 20.4768 28.6546C19.6433 27.821 19.0756 26.759 18.8456 25.6029C18.6157 24.4467 18.7337 23.2484 19.1848 22.1593C19.6359 21.0702 20.3998 20.1394 21.38 19.4845C22.3601 18.8296 23.5124 18.48 24.6912 18.48C26.2714 18.4819 27.7863 19.1104 28.9036 20.2277C30.021 21.3451 30.6495 22.86 30.6513 24.4401ZM43.3165 16.245V32.6353C43.3134 35.4005 42.2135 38.0517 40.2581 40.007C38.3028 41.9624 35.6516 43.0623 32.8864 43.0654H16.4961C13.7308 43.0623 11.0797 41.9624 9.12433 40.007C7.16898 38.0517 6.06907 35.4005 6.06592 32.6353L6.06592 16.245C6.06907 13.4797 7.16898 10.8286 9.12433 8.87323C11.0797 6.91788 13.7308 5.81797 16.4961 5.81482L32.8864 5.81482C35.6516 5.81797 38.3028 6.91788 40.2581 8.87323C42.2135 10.8286 43.3134 13.4797 43.3165 16.245V16.245ZM33.6314 24.4401C33.6314 22.6719 33.107 20.9434 32.1247 19.4732C31.1423 18.003 29.7461 16.8572 28.1125 16.1805C26.4789 15.5038 24.6813 15.3268 22.9471 15.6718C21.2129 16.0167 19.6199 16.8682 18.3696 18.1185C17.1193 19.3688 16.2678 20.9618 15.9229 22.696C15.5779 24.4302 15.7549 26.2278 16.4316 27.8614C17.1083 29.495 18.2541 30.8912 19.7243 31.8736C21.1945 32.8559 22.923 33.3803 24.6912 33.3803C27.0615 33.3776 29.3339 32.4349 31.0099 30.7588C32.6859 29.0828 33.6287 26.8104 33.6314 24.4401V24.4401ZM36.6114 14.755C36.6114 14.3129 36.4803 13.8808 36.2347 13.5132C35.9892 13.1457 35.6401 12.8592 35.2317 12.6901C34.8233 12.5209 34.3739 12.4766 33.9404 12.5629C33.5068 12.6491 33.1086 12.862 32.796 13.1746C32.4834 13.4871 32.2705 13.8854 32.1843 14.3189C32.0981 14.7525 32.1423 15.2019 32.3115 15.6103C32.4806 16.0187 32.7671 16.3677 33.1347 16.6133C33.5022 16.8589 33.9343 16.99 34.3764 16.99C34.9692 16.99 35.5376 16.7545 35.9568 16.3354C36.3759 15.9162 36.6114 15.3477 36.6114 14.755Z" fill="#25282B"/>
</svg>
