<svg width="1431" height="343" viewBox="0 0 1431 343" fill="none" xmlns="http://www.w3.org/2000/svg">
<path fill-rule="evenodd" clip-rule="evenodd" d="M0 257.214L59.601 228.738C119.202 200.262 238.404 143.31 357.606 150.429C476.808 157.548 596.01 228.738 715.212 228.738C834.414 228.738 953.616 157.548 1072.82 107.715C1192.02 57.8822 1311.22 29.4062 1370.82 15.1682L1430.42 0.930176V342.642H1370.82C1311.22 342.642 1192.02 342.642 1072.82 342.642C953.616 342.642 834.414 342.642 715.212 342.642C596.01 342.642 476.808 342.642 357.606 342.642C238.404 342.642 119.202 342.642 59.601 342.642H0L0 257.214Z" fill="#FDC435"/>
</svg>
